Coordinates
version=1
nRows=29
nColumns=24
inDegrees=yes

Units are S.I. units (second, meters, Newtons, ...)
Angles are in degrees.

endheader
time	pelvis_tilt	pelvis_list	pelvis_rotation	pelvis_tx	pelvis_ty	pelvis_tz	hip_flexion_r	hip_adduction_r	hip_rotation_r	knee_angle_r	ankle_angle_r	subtalar_angle_r	mtp_angle_r	hip_flexion_l	hip_adduction_l	hip_rotation_l	knee_angle_l	ankle_angle_l	subtalar_angle_l	mtp_angle_l	lumbar_extension	lumbar_bending	lumbar_rotation
      0.97500000	      2.87552620	     -4.54777499	     -1.14527001	     -0.33503278	      1.07995319	      0.35051707	      1.60916572	      9.92220059	     -9.48600999	     -7.09731736	      0.00169521	     -4.45158296	      3.61893260	     10.14690745	     -6.65490798	     -0.65742730	    -59.86072536	      0.63632885	     -1.40337107	     18.02564465	      3.86894743	      9.79926007	      0.31769203
      0.97916667	      2.86880330	     -4.51395962	     -1.24802034	     -0.33034037	      1.08033461	      0.35092548	      1.20759548	      9.93308133	     -9.24561042	     -6.85082973	      0.03700129	     -4.55626181	      3.61487807	     10.61782925	     -6.55602450	     -0.50763306	    -59.44018727	      1.10874064	     -1.93000272	     17.84845837	      3.84006740	      9.74420929	      0.40247987
      0.98333333	      2.86464406	     -4.48251518	     -1.34803271	     -0.32571141	      1.08069890	      0.35132344	      0.80512340	      9.94598081	     -8.98448316	     -6.59573229	      0.06197810	     -4.68239419	      3.60929953	     11.08155788	     -6.45809145	     -0.35559148	    -58.97702062	      1.52711401	     -2.47581471	     17.66742012	      3.80687835	      9.68714212	      0.50233929
      0.98750000	      2.84722496	     -4.44433953	     -1.45151130	     -0.32108583	      1.08102257	      0.35173950	      0.41643888	      9.95257801	     -8.71300024	     -6.33842183	      0.08644896	     -4.83581352	      3.60205788	     11.54670974	     -6.35531206	     -0.21277160	    -58.46959829	      1.91838017	     -3.05497954	     17.47773605	      3.78284210	      9.62340479	      0.61651642
      0.99166667	      2.82056432	     -4.38361379	     -1.64738449	     -0.31651770	      1.08133696	      0.35218835	      0.05998581	      9.92145183	     -8.43454065	     -6.14122883	      0.09045192	     -5.14993999	      3.58578034	     11.98680996	     -6.23454317	     -0.17214867	    -57.89997836	      2.26604909	     -3.82715843	     17.14169547	      3.70923990	      9.60249588	      0.79028368
      0.99583333	      2.80420116	     -4.36600087	     -1.66122976	     -0.31192351	      1.08157512	      0.35259743	     -0.34151175	      9.96093814	     -8.16683789	     -5.83724478	      0.11335126	     -5.20614004	      3.57910284	     12.45805162	     -6.15450516	      0.05572499	    -57.32777697	      2.50135959	     -4.21166810	     16.98123622	      3.72151005	      9.51576882	      0.89619258
      1.00000000	      2.74793030	     -4.29957869	     -1.86845077	     -0.30736603	      1.08180120	      0.35303680	     -0.66228486	      9.91849154	     -7.87610594	     -5.64826706	      0.13658840	     -5.53543787	      3.55665137	     12.90475301	     -6.03110312	      0.07463876	    -56.67861549	      2.84030602	     -5.07011159	     16.59260696	      3.66549608	      9.48439002	      1.07893323
      1.00416667	      2.72985402	     -4.27825679	     -1.87297469	     -0.30275555	      1.08199685	      0.35339846	     -1.06513239	      9.94753393	     -7.62503757	     -5.34209305	      0.16321807	     -5.58170973	      3.54802298	     13.35187629	     -5.94201138	      0.30955809	    -56.02499274	      3.04792578	     -5.44176158	     16.42683851	      3.70163255	      9.39658579	      1.17935240
      1.00833333	      2.69142624	     -4.22935853	     -1.97440406	     -0.29816229	      1.08216716	      0.35377078	     -1.42521319	      9.93188565	     -7.36280683	     -5.09747392	      0.21777543	     -5.76104641	      3.53306767	     13.77898515	     -5.82940721	      0.42590482	    -55.31470620	      3.38558260	     -6.12038703	     16.19510505	      3.71255597	      9.31279264	      1.29640281
      1.01250000	      2.62098500	     -4.17165973	     -2.17602102	     -0.29370393	      1.08228559	      0.35421995	     -1.72173576	      9.89646886	     -7.04850388	     -4.90734962	      0.22780536	     -6.12796635	      3.49623842	     14.21828267	     -5.72873259	      0.42846673	    -54.54493937	      3.46980115	     -7.03582352	     15.68855277	      3.64377846	      9.29287615	      1.49348733
      1.01666667	      2.55702800	     -4.15599928	     -2.25275003	     -0.28924989	      1.08232664	      0.35464593	     -2.06080169	      9.92685129	     -6.63846189	     -4.62740107	      0.18901929	     -6.44197073	      3.41711740	     14.67649790	     -5.66616531	      0.55705160	    -53.77409341	      3.43526014	     -7.81624664	     14.62110844	      3.56843527	      9.28798866	      1.78657088
      1.02083333	      2.54016123	     -4.09844600	     -2.27968823	     -0.28456045	      1.08244834	      0.35490872	     -2.44625690	      9.89697083	     -6.54810013	     -4.37123222	      0.26327154	     -6.46476073	      3.40571477	     15.04520373	     -5.53278216	      0.74116814	    -52.93951872	      3.73253920	     -8.05494098	     14.46645263	      3.68658173	      9.18547350	      1.83418050
      1.02500000	      2.48990658	     -4.06446509	     -2.33389203	     -0.28000966	      1.08247078	      0.35519616	     -2.78588526	      9.89166236	     -6.34775165	     -4.12879998	      0.35189140	     -6.54128385	      3.38941167	     15.45269700	     -5.43579438	      0.88559802	    -52.09748486	      4.02637964	     -8.58395856	     14.25670050	      3.71326866	      9.09745387	      1.88132064
      1.02916667	      2.41205434	     -4.01474317	     -2.50417001	     -0.27553755	      1.08246070	      0.35556938	     -3.07044468	      9.85597692	     -6.10579343	     -3.94969815	      0.41951314	     -6.79935630	      3.34736354	     15.85235265	     -5.34579873	      0.89485025	    -51.18469463	      4.05405506	     -9.47478442	     13.78078368	      3.66058569	      9.04490540	      1.96231416
      1.03333333	      2.38143959	     -3.99607263	     -2.47572084	     -0.27096446	      1.08242789	      0.35578145	     -3.44755385	      9.87431260	     -5.92334554	     -3.65996978	      0.46231939	     -6.83797964	      3.33095005	     16.23060219	     -5.25471981	      1.11129982	    -50.27449303	      4.16101437	     -9.78771279	     13.59155157	      3.74090910	      9.00835583	      2.02250251
      1.03750000	      2.33065809	     -3.95597838	     -2.54129502	     -0.26637236	      1.08237730	      0.35605396	     -3.78736122	      9.85428731	     -5.72822715	     -3.42310415	      0.54497391	     -6.97387922	      3.30745741	     16.58626735	     -5.15839142	      1.21591685	    -49.30574642	      4.31226737	    -10.39997991	     13.33951845	      3.78589887	      8.92471537	      2.09103309
      1.04166667	      2.23450260	     -3.92480852	     -2.69318100	     -0.26192765	      1.08224008	      0.35638393	     -4.04950850	      9.83569628	     -5.47943575	     -3.24593941	      0.59706686	     -7.26384574	      3.25137585	     16.97770015	     -5.09619516	      1.21878868	    -48.29752217	      4.14906062	    -11.31880460	     12.78239045	      3.72102330	      8.89181126	      2.19575193
      1.04583333	      2.20258276	     -3.92598759	     -2.65632822	     -0.25739234	      1.08210260	      0.35653639	     -4.41497500	      9.86818170	     -5.34115647	     -2.97358532	      0.63581219	     -7.28610544	      3.23379943	     17.32383145	     -5.02703837	      1.42309350	    -47.29812712	      4.24051685	    -11.54264638	     12.60398775	      3.78857606	      8.90246156	      2.24093800
      1.05000000	      2.15499172	     -3.90234856	     -2.69100583	     -0.25278922	      1.08195778	      0.35674254	     -4.76053709	      9.86351613	     -5.17369931	     -2.73152446	      0.72307000	     -7.40085204	      3.20793022	     17.64482672	     -4.94920657	      1.52934296	    -46.24389776	      4.33657456	    -12.05329761	     12.35567054	      3.84589540	      8.83958223	      2.29758118
      1.05416667	      2.05235841	     -3.91421681	     -2.73132166	     -0.24834457	      1.08166423	      0.35693488	     -5.00261679	      9.89816215	     -5.15685065	     -2.55379455	      0.75743953	     -7.42767199	      3.20251150	     18.04026157	     -4.91714713	      1.62055982	    -45.20066011	      4.39572549	    -12.16087151	     12.30440660	      3.73108541	      8.90091938	      2.28851521
      1.05833333	      2.00515704	     -3.89108612	     -2.85919227	     -0.24379880	      1.08148729	      0.35719128	     -5.34849362	      9.87489993	     -4.79563457	     -2.33986419	      0.88054128	     -7.73875885	      3.13986702	     18.31239444	     -4.86412304	      1.62252188	    -44.04696645	      4.15695033	    -13.35069124	     11.74643589	      3.78541197	      8.77039289	      2.40108077
      1.06250000	      1.92157357	     -3.92100919	     -2.84441111	     -0.23928911	      1.08114328	      0.35729518	     -5.63011876	      9.92880226	     -4.76279589	     -2.12517476	      0.90451096	     -7.74021077	      3.13361313	     18.66925250	     -4.84029019	      1.75226550	    -42.95503729	      4.21091426	    -13.40277567	     11.68930410	      3.74024055	      8.87062846	      2.39732898
      1.06666667	      1.90673065	     -3.91308076	     -2.90347280	     -0.23469658	      1.08092900	      0.35751750	     -6.01941610	      9.92862084	     -4.47687638	     -1.88159466	      0.99319158	     -7.99451856	      3.04974066	     18.89452769	     -4.79685207	      1.78621262	    -41.75997221	      3.95268244	    -14.29128005	     10.98997814	      3.79833174	      8.76982588	      2.51787696
      1.07083333	      1.82220700	     -3.96272662	     -2.89120255	     -0.23022703	      1.08050967	      0.35755947	     -6.29054626	      9.99522405	     -4.45559941	     -1.69181281	      1.01984078	     -7.99130623	      3.04321583	     19.23127806	     -4.79411011	      1.90784721	    -40.62577976	      4.02151579	    -14.31727510	     10.93352442	      3.75863160	      8.88594624	      2.50782920
      1.07500000	      1.80695418	     -3.99736639	     -2.85036753	     -0.22558469	      1.08017402	      0.35764275	     -6.68265163	     10.05084228	     -4.31350283	     -1.42907225	      1.10856546	     -8.02763531	      3.01841017	     19.46158695	     -4.77373256	      2.02034247	    -39.43770043	      4.03568515	    -14.56408200	     10.72577664	      3.92680457	      8.93286558	      2.54204720
      1.07916667	      1.76492567	     -4.02222957	     -2.95509883	     -0.22111049	      1.07981770	      0.35782660	     -7.01128980	     10.06817364	     -4.05325650	     -1.25435538	      1.23198362	     -8.24146093	      2.92348595	     19.68626868	     -4.78247342	      1.99478619	    -38.18952586	      3.72875263	    -15.26721091	      9.98575599	      3.81957268	      8.85910038	      2.60715256
      1.08333333	      1.67388591	     -4.09514497	     -2.92899344	     -0.21657059	      1.07928526	      0.35782330	     -7.27860310	     10.15731032	     -4.06377110	     -1.06354524	      1.25648813	     -8.24332413	      2.91609614	     19.99504443	     -4.80685178	      2.07743154	    -36.99739725	      3.79903792	    -15.26484127	      9.92874572	      3.79085724	      9.00021613	      2.59213879
      1.08750000	      1.70701636	     -4.14513173	     -3.02592953	     -0.21209579	      1.07896840	      0.35805384	     -7.70583977	     10.20208837	     -3.71916435	     -0.85331795	      1.34733244	     -8.58784228	      2.63634356	     20.11754608	     -4.85383106	      1.98411950	    -35.71092096	      3.41748052	    -15.88196981	      7.88896869	      3.78286994	      9.14756663	      2.70864675
      1.09166667	      1.63319667	     -4.21443842	     -2.90597841	     -0.20740712	      1.07837287	      0.35795035	     -8.02305055	     10.29776628	     -3.72343023	     -0.60293388	      1.38300234	     -8.52726279	      2.61272955	     20.39102147	     -4.84779688	      2.14342919	    -34.48465081	      3.56623831	    -15.73173599	      7.72171824	      3.89598268	      9.15473598	      2.72619532
